<?xml version="1.0" standalone="no"?><!DOCTYPE svg PUBLIC "-//W3C//DTD SVG 1.1//EN" "http://www.w3.org/Graphics/SVG/1.1/DTD/svg11.dtd"><svg t="1629357689547" class="icon" viewBox="0 0 1024 1024" version="1.1" xmlns="http://www.w3.org/2000/svg" p-id="1236" xmlns:xlink="http://www.w3.org/1999/xlink" width="200" height="200"><defs><style type="text/css"></style></defs><path d="M512.034987 42.666667c30.101333 0 58.048 10.090667 78.72 28.437333l370.026666 328.341333c8.213333 7.296 13.376 13.333333 16.490667 17.749334-5.674667 1.408-14.378667 2.688-26.730667 2.688h-91.776V981.333333H165.325653V419.882667H73.485653c-12.373333 0-21.077333-1.28-26.752-2.688 3.114667-4.416 8.298667-10.453333 16.490667-17.728L433.378987 71.082667C454.00832 52.757333 481.954987 42.666667 512.034987 42.666667m0-42.666667c-38.805333 0-77.589333 13.056-106.986667 39.168L34.93632 367.530667c-58.858667 52.245333-41.493333 95.018667 38.570667 95.018666H122.68032V1024h778.794667V462.549333h49.109333c80.064 0 97.365333-42.773333 38.570667-95.018666L619.085653 39.168C589.645653 13.056 550.84032 0 512.034987 0z" p-id="1237"></path><path d="M641.293653 572.074667V981.333333H382.77632V572.074667H641.293653m21.333334-42.666667H361.442987c-11.733333 0-21.333333 9.6-21.333334 21.333333V1002.666667c0 11.733333 9.6 21.333333 21.333334 21.333333H662.626987c11.733333 0 21.333333-9.6 21.333333-21.333333V550.741333c0-11.712-9.621333-21.333333-21.333333-21.333333z" p-id="1238"></path></svg>