<?xml version="1.0" standalone="no"?><!DOCTYPE svg PUBLIC "-//W3C//DTD SVG 1.1//EN" "http://www.w3.org/Graphics/SVG/1.1/DTD/svg11.dtd"><svg t="1629357816112" class="icon" viewBox="0 0 1024 1024" version="1.1" xmlns="http://www.w3.org/2000/svg" p-id="2183" xmlns:xlink="http://www.w3.org/1999/xlink" width="200" height="200"><defs><style type="text/css"></style></defs><path d="M480.9 487.2H253.7c-109.8 0-199.2-89.4-199.2-199.2v-38c0-104.7 85.2-190 190-190h41.9C393.7 60 481 147.3 481 254.6v232.6zM244.4 78.5C149.9 78.5 73 155.4 73 250v38c0 99.6 81.1 180.7 180.7 180.7h208.7V254.6c0-97.1-79-176.1-176.1-176.1h-41.9zM281.7 968.1h-37.3c-104.7 0-190-85.2-190-190v-42.7c0-107.3 87.3-194.6 194.6-194.6h231.9v228c0 109.9-89.3 199.3-199.2 199.3zM249 559.4c-97 0-176 79-176 176.1v42.7c0 94.5 76.9 171.4 171.4 171.4h37.3c99.6 0 180.7-81.1 180.7-180.7V559.4H249zM767.9 487.2H536v-228C536 149.4 625.4 60 735.2 60h37.3c104.7 0 190 85.2 190 190v42.7c0 107.2-87.3 194.5-194.6 194.5z m-213.3-18.5H768c97.1 0 176.1-79 176.1-176.1V250c0-94.5-76.9-171.4-171.4-171.4h-37.3c-99.6 0-180.7 81.1-180.7 180.7v209.4zM772.6 968.1h-41.9c-107.3 0-194.6-87.3-194.6-194.6V540.9h227.3c109.8 0 199.2 89.4 199.2 199.2v38c-0.1 104.8-85.3 190-190 190z m-218-408.7v214.1c0 97.1 79 176.1 176.1 176.1h41.9c94.5 0 171.4-76.9 171.4-171.4v-38c0-99.6-81.1-180.7-180.7-180.7H554.6z" fill="" p-id="2184"></path><path d="M882.4 268.7l18.4 2.1c14.7-132-132.7-157.8-134.1-158.1l-3 18.3c5.4 0.9 131.5 23.2 118.7 137.7z" fill="" p-id="2185"></path><path d="M888.7 311.1m-13.9 0a13.9 13.9 0 1 0 27.8 0 13.9 13.9 0 1 0-27.8 0Z" fill="" p-id="2186"></path></svg>